<?xml version="1.0" encoding="UTF-8"?><svg id="Layer_1" xmlns="http://www.w3.org/2000/svg" viewBox="0 0 1080 1080"><defs><style>.cls-1{fill:#fff;}.cls-2{fill:#c15505;fill-rule:evenodd;}</style></defs><path class="cls-2" d="M540,0C108,0,0,108,0,540s108,540,540,540,540-108,540-540S972,0,540,0Z"/><path class="cls-1" d="M808.64,249.38v222.41c0,156.13-128.64,282.15-284.18,282.15-91.63,0-170.65-58.91-199.33-141.25-42.01,36.65-68.66,90.56-68.66,150.77v28.56h-57.12v-28.56c0-89.13,45.46-167.67,114.36-213.85,41.89-27.97,92.11-43.2,142.68-43.2h123.76v-57.12h-123.76c-47.24,0-91.99,10.47-132.09,29.16,27.73-83.3,106.15-143.4,198.73-143.4,69.02,0,127.93-25.94,170.41-52.72,21.06-13.33,37.72-26.66,49.03-36.65,5.71-5,11.19-10.35,16.54-15.71l49.62,19.4Z"/></svg>